<svg width="22" height="22" viewBox="0 0 22 22" fill="#000" xmlns="http://www.w3.org/2000/svg">
<path fill-rule="evenodd" clip-rule="evenodd" d="M18.9082 12.9519C17.1705 14.5393 17.075 14.6265 17.0241 14.7348C17.0212 14.7411 17.0184 14.7474 17.0154 14.7542C17.0122 14.7614 17.0088 14.7691 17.0048 14.7776C16.8754 15.0552 16.938 15.3767 17.1655 15.5917C17.2302 15.6522 17.3221 15.7148 17.3972 15.744L17.5225 15.7941L19.2715 15.8004L21.0186 15.8066L21.0186 18.4658L21.0186 21.127L15.5855 21.127L10.1525 21.127L8.43678 19.1879C7.49126 18.1214 6.68768 17.2197 6.65011 17.1863C6.46226 17.0214 6.1617 16.9671 5.92376 17.0569C5.69417 17.1425 5.51675 17.3595 5.47083 17.6079C5.45622 17.6914 5.44787 18.2633 5.44787 19.3048L5.44787 20.8765L2.77623 20.8765L0.104583 20.8765L0.104583 15.8901L0.104583 10.9038L2.07284 9.16302C4.00143 7.45776 4.04109 7.42019 4.11205 7.28034C4.17884 7.15094 4.1851 7.11963 4.1851 6.96726C4.18302 6.82742 4.17467 6.77732 4.12666 6.67296C4.05152 6.51016 3.92838 6.3891 3.76975 6.31396L3.64243 6.25552L1.82237 6.25552L0.000222925 6.25552L0.000223039 3.63397L0.000223154 1.01241L1.16489 0.997803C1.80358 0.991541 3.87828 0.974844 5.77139 0.964408C7.66659 0.951884 9.42612 0.939361 9.68285 0.937274L10.1504 0.931012L12.2981 2.97232C12.4246 3.09235 12.544 3.20579 12.6569 3.31299C14.3854 4.95459 14.5743 5.13401 14.7757 5.14939C14.8004 5.15127 14.8253 5.15069 14.8533 5.15004C14.8688 5.14967 14.8852 5.14929 14.903 5.14929C15.0533 5.14929 15.0971 5.14094 15.1952 5.09293C15.3455 5.01779 15.4812 4.88421 15.5479 4.74228L15.6022 4.62748L15.598 2.76568L15.5939 0.901791L16.0781 0.899704C16.3432 0.899704 17.525 0.891483 18.7158 0.883199L18.7435 0.883007C19.9436 0.874658 20.9288 0.870483 20.9351 0.874658C20.9455 0.885094 21.0144 9.37592 21.0102 10.3987L21.0081 11.0353L19.2653 12.6257C19.1391 12.741 19.0202 12.8496 18.9082 12.9519ZM15.6245 6.79924C15.6307 6.8556 15.6495 8.43771 15.6641 10.3141C15.6787 12.1905 15.6892 14.069 15.6871 14.4886L15.685 15.2504L15.6286 15.3694C15.5243 15.5906 15.3093 15.7513 15.0693 15.7806C15.0066 15.7889 12.9445 15.791 10.4878 15.7847L6.02115 15.7722L5.88966 15.7117C5.72685 15.6365 5.57449 15.4758 5.50561 15.3068L5.4576 15.1878L5.4576 11.0029L5.4576 6.81803L5.50561 6.69905C5.57449 6.52999 5.72686 6.36927 5.88966 6.29413L6.02115 6.2336L7.3361 6.22108C8.06037 6.21273 10.1017 6.20438 11.8758 6.20021L15.1006 6.19186L15.1987 6.23778C15.4157 6.33797 15.5994 6.578 15.6245 6.79924Z" fill="white"/>
</svg>